<mxfile host="app.diagrams.net" modified="2021-06-03T11:16:12.909Z" agent="5.0 (Macintosh; Intel Mac OS X 10_15_7) AppleWebKit/537.36 (KHTML, like Gecko) Chrome/90.0.4430.212 Safari/537.36" etag="McEpJk0KDPHJ92fXxRnb" version="14.7.4" type="github">
  <diagram name="Page-1" id="b5b7bab2-c9e2-2cf4-8b2a-24fd1a2a6d21">
    <mxGraphModel dx="3393" dy="3246" grid="1" gridSize="10" guides="1" tooltips="1" connect="1" arrows="1" fold="1" page="1" pageScale="1" pageWidth="827" pageHeight="1169" background="none" math="0" shadow="0">
      <root>
        <mxCell id="0" />
        <mxCell id="1" parent="0" />
        <mxCell id="2WE1GlY1AKFLDNiEvPUj-16" style="edgeStyle=orthogonalEdgeStyle;rounded=0;orthogonalLoop=1;jettySize=auto;html=1;entryX=0;entryY=0.5;entryDx=0;entryDy=0;" edge="1" parent="1" source="2WE1GlY1AKFLDNiEvPUj-6" target="2WE1GlY1AKFLDNiEvPUj-9">
          <mxGeometry relative="1" as="geometry" />
        </mxCell>
        <mxCell id="2WE1GlY1AKFLDNiEvPUj-6" value="&lt;span style=&quot;text-align: left&quot;&gt;&lt;span style=&quot;font-size: 16px&quot;&gt;ddmc_recommend.exposure_products_h5&lt;/span&gt;&lt;br&gt;&lt;/span&gt;" style="rounded=0;whiteSpace=wrap;html=1;fontStyle=1" vertex="1" parent="1">
          <mxGeometry x="20" y="-1070" width="420" height="30" as="geometry" />
        </mxCell>
        <mxCell id="2WE1GlY1AKFLDNiEvPUj-18" style="edgeStyle=orthogonalEdgeStyle;rounded=0;orthogonalLoop=1;jettySize=auto;html=1;entryX=1;entryY=0.5;entryDx=0;entryDy=0;" edge="1" parent="1" source="2WE1GlY1AKFLDNiEvPUj-8" target="2WE1GlY1AKFLDNiEvPUj-9">
          <mxGeometry relative="1" as="geometry" />
        </mxCell>
        <mxCell id="2WE1GlY1AKFLDNiEvPUj-8" value="&lt;span style=&quot;text-align: left&quot;&gt;&lt;span style=&quot;font-size: 16px&quot;&gt;ddmc_recommend.exposure_products&lt;/span&gt;&lt;br&gt;&lt;/span&gt;" style="rounded=0;whiteSpace=wrap;html=1;fontStyle=1" vertex="1" parent="1">
          <mxGeometry x="560" y="-1070" width="420" height="30" as="geometry" />
        </mxCell>
        <mxCell id="2WE1GlY1AKFLDNiEvPUj-9" value="&lt;div style=&quot;text-align: center ; font-size: 14px&quot;&gt;&lt;span style=&quot;color: rgb(43 , 43 , 43) ; font-family: &amp;#34;times new roman&amp;#34; ; text-align: left ; background-color: rgb(255 , 255 , 255)&quot;&gt;同步表数据&lt;/span&gt;&lt;span style=&quot;color: rgb(43 , 43 , 43) ; font-family: &amp;#34;times new roman&amp;#34; ; text-align: left ; background-color: rgb(255 , 255 , 255)&quot;&gt;到impala&lt;/span&gt;&lt;br&gt;&lt;/div&gt;" style="rounded=0;whiteSpace=wrap;html=1;" vertex="1" parent="1">
          <mxGeometry x="290" y="-950" width="420" height="30" as="geometry" />
        </mxCell>
        <mxCell id="2WE1GlY1AKFLDNiEvPUj-19" value="&lt;span style=&quot;font-family: &amp;quot;times new roman&amp;quot; ; font-size: 16px ; text-align: left ; background-color: rgb(255 , 255 , 255)&quot;&gt;ddmc_recommend.user_value&lt;/span&gt;&lt;span style=&quot;text-align: left&quot;&gt;&lt;br&gt;&lt;/span&gt;" style="rounded=0;whiteSpace=wrap;html=1;fontStyle=1" vertex="1" parent="1">
          <mxGeometry x="1110" y="-1070" width="420" height="40" as="geometry" />
        </mxCell>
        <mxCell id="2WE1GlY1AKFLDNiEvPUj-23" style="edgeStyle=orthogonalEdgeStyle;rounded=0;orthogonalLoop=1;jettySize=auto;html=1;exitX=0.5;exitY=1;exitDx=0;exitDy=0;entryX=0.852;entryY=-0.017;entryDx=0;entryDy=0;entryPerimeter=0;" edge="1" parent="1" source="2WE1GlY1AKFLDNiEvPUj-20" target="2WE1GlY1AKFLDNiEvPUj-19">
          <mxGeometry relative="1" as="geometry" />
        </mxCell>
        <mxCell id="2WE1GlY1AKFLDNiEvPUj-20" value="&lt;span style=&quot;font-family: &amp;#34;times new roman&amp;#34; ; font-size: 16px ; text-align: left ; background-color: rgb(255 , 255 , 255)&quot;&gt;ddmc_recommend.important_user&lt;/span&gt;&lt;span style=&quot;text-align: left&quot;&gt;&lt;br&gt;&lt;/span&gt;" style="rounded=0;whiteSpace=wrap;html=1;" vertex="1" parent="1">
          <mxGeometry x="1330" y="-1140" width="280" height="30" as="geometry" />
        </mxCell>
        <mxCell id="2WE1GlY1AKFLDNiEvPUj-22" style="edgeStyle=orthogonalEdgeStyle;rounded=0;orthogonalLoop=1;jettySize=auto;html=1;exitX=0.5;exitY=1;exitDx=0;exitDy=0;entryX=0.176;entryY=-0.058;entryDx=0;entryDy=0;entryPerimeter=0;" edge="1" parent="1" source="2WE1GlY1AKFLDNiEvPUj-21" target="2WE1GlY1AKFLDNiEvPUj-19">
          <mxGeometry relative="1" as="geometry" />
        </mxCell>
        <mxCell id="2WE1GlY1AKFLDNiEvPUj-21" value="&lt;span style=&quot;color: rgb(43 , 43 , 43) ; font-family: &amp;#34;times new roman&amp;#34; ; font-size: 16px ; text-align: left ; background-color: rgb(255 , 255 , 255)&quot;&gt;dwd.trd_order&lt;/span&gt;&lt;span style=&quot;text-align: left&quot;&gt;&lt;br&gt;&lt;/span&gt;" style="rounded=0;whiteSpace=wrap;html=1;" vertex="1" parent="1">
          <mxGeometry x="1070" y="-1140" width="230" height="30" as="geometry" />
        </mxCell>
        <mxCell id="2WE1GlY1AKFLDNiEvPUj-25" value="&lt;font style=&quot;font-size: 13px&quot;&gt;2573，&lt;span style=&quot;color: rgb(43 , 43 , 43) ; font-family: &amp;#34;times new roman&amp;#34; ; text-align: left ; background-color: rgb(255 , 255 , 255)&quot;&gt;每天&amp;nbsp;凌晨03:00&lt;/span&gt;&lt;/font&gt;" style="rounded=0;whiteSpace=wrap;html=1;fillColor=none;gradientColor=#ffffff;dashed=1;" vertex="1" parent="1">
          <mxGeometry x="1025" y="-1155" width="590" height="140" as="geometry" />
        </mxCell>
        <mxCell id="2WE1GlY1AKFLDNiEvPUj-26" value="4" style="ellipse;whiteSpace=wrap;html=1;aspect=fixed;fillColor=none;gradientColor=#ffffff;" vertex="1" parent="1">
          <mxGeometry x="1040" y="-1090" width="30" height="30" as="geometry" />
        </mxCell>
        <mxCell id="2WE1GlY1AKFLDNiEvPUj-27" value="&lt;font style=&quot;font-size: 13px&quot;&gt;2572，&lt;span style=&quot;color: rgb(43 , 43 , 43) ; font-family: &amp;#34;times new roman&amp;#34; ; text-align: left ; background-color: rgb(255 , 255 , 255)&quot;&gt;每天&amp;nbsp;凌晨03:05&lt;/span&gt;&lt;/font&gt;" style="rounded=0;whiteSpace=wrap;html=1;fillColor=none;gradientColor=#ffffff;dashed=1;" vertex="1" parent="1">
          <mxGeometry x="10" y="-1150" width="440" height="130" as="geometry" />
        </mxCell>
        <mxCell id="2WE1GlY1AKFLDNiEvPUj-28" value="1" style="ellipse;whiteSpace=wrap;html=1;aspect=fixed;fillColor=none;gradientColor=#ffffff;" vertex="1" parent="1">
          <mxGeometry x="30" y="-1130" width="30" height="30" as="geometry" />
        </mxCell>
        <mxCell id="2WE1GlY1AKFLDNiEvPUj-272" style="edgeStyle=orthogonalEdgeStyle;rounded=0;orthogonalLoop=1;jettySize=auto;html=1;exitX=0.75;exitY=1;exitDx=0;exitDy=0;entryX=0.589;entryY=-0.007;entryDx=0;entryDy=0;entryPerimeter=0;fontSize=13;fontColor=#FFFFFF;strokeWidth=1;" edge="1" parent="1" source="2WE1GlY1AKFLDNiEvPUj-30" target="2WE1GlY1AKFLDNiEvPUj-61">
          <mxGeometry relative="1" as="geometry" />
        </mxCell>
        <mxCell id="2WE1GlY1AKFLDNiEvPUj-30" value="&lt;font style=&quot;font-size: 13px&quot;&gt;2571，&lt;span style=&quot;color: rgb(43 , 43 , 43) ; font-family: &amp;#34;times new roman&amp;#34; ; text-align: left ; background-color: rgb(255 , 255 , 255)&quot;&gt;每天&amp;nbsp;凌晨03:00&lt;/span&gt;&lt;/font&gt;" style="rounded=0;whiteSpace=wrap;html=1;fillColor=none;gradientColor=#ffffff;dashed=1;" vertex="1" parent="1">
          <mxGeometry x="560" y="-1150" width="440" height="130" as="geometry" />
        </mxCell>
        <mxCell id="2WE1GlY1AKFLDNiEvPUj-31" value="2" style="ellipse;whiteSpace=wrap;html=1;aspect=fixed;fillColor=none;gradientColor=#ffffff;" vertex="1" parent="1">
          <mxGeometry x="570" y="-1130" width="30" height="30" as="geometry" />
        </mxCell>
        <mxCell id="2WE1GlY1AKFLDNiEvPUj-32" value="" style="rounded=0;whiteSpace=wrap;html=1;fillColor=none;gradientColor=#ffffff;dashed=1;" vertex="1" parent="1">
          <mxGeometry x="270" y="-1000" width="460" height="100" as="geometry" />
        </mxCell>
        <mxCell id="2WE1GlY1AKFLDNiEvPUj-33" value="3" style="ellipse;whiteSpace=wrap;html=1;aspect=fixed;fillColor=none;gradientColor=#ffffff;" vertex="1" parent="1">
          <mxGeometry x="300" y="-990" width="30" height="30" as="geometry" />
        </mxCell>
        <mxCell id="2WE1GlY1AKFLDNiEvPUj-34" value="2573" style="text;html=1;align=center;verticalAlign=middle;resizable=0;points=[];autosize=1;strokeColor=none;strokeWidth=3;perimeterSpacing=2;fontSize=14;" vertex="1" parent="1">
          <mxGeometry x="465" y="-970" width="50" height="20" as="geometry" />
        </mxCell>
        <mxCell id="2WE1GlY1AKFLDNiEvPUj-38" value="&lt;span style=&quot;font-family: &amp;#34;times new roman&amp;#34; ; font-size: 16px ; text-align: left ; background-color: rgb(255 , 255 , 255)&quot;&gt;tmp.rebuy_middle_variable_dzj&lt;/span&gt;&lt;span style=&quot;text-align: left&quot;&gt;&lt;br&gt;&lt;/span&gt;" style="rounded=0;whiteSpace=wrap;html=1;" vertex="1" parent="1">
          <mxGeometry x="202.5" y="-729" width="225" height="25" as="geometry" />
        </mxCell>
        <mxCell id="2WE1GlY1AKFLDNiEvPUj-40" value="&lt;span style=&quot;font-family: &amp;#34;times new roman&amp;#34; ; font-size: 16px ; text-align: left ; background-color: rgb(255 , 255 , 255)&quot;&gt;tmp.product_param_rebuy_dzj&lt;/span&gt;&lt;span style=&quot;text-align: left&quot;&gt;&lt;br&gt;&lt;/span&gt;" style="rounded=0;whiteSpace=wrap;html=1;" vertex="1" parent="1">
          <mxGeometry x="202.5" y="-795" width="215" height="25" as="geometry" />
        </mxCell>
        <mxCell id="2WE1GlY1AKFLDNiEvPUj-42" value="5" style="ellipse;whiteSpace=wrap;html=1;aspect=fixed;fillColor=none;gradientColor=#ffffff;" vertex="1" parent="1">
          <mxGeometry x="120" y="-800" width="30" height="30" as="geometry" />
        </mxCell>
        <mxCell id="2WE1GlY1AKFLDNiEvPUj-49" value="&lt;meta charset=&quot;utf-8&quot;&gt;&lt;table style=&quot;border-collapse: collapse&quot;&gt;&lt;colgroup&gt;&lt;col width=&quot;285&quot; style=&quot;width: 285px&quot;&gt;&lt;/colgroup&gt;&lt;tbody&gt;&lt;tr style=&quot;height: 19px&quot;&gt;&lt;td style=&quot;font-size: 12pt ; font-family: &amp;quot;times new roman&amp;quot; ; border-left: 0.5pt solid #000000 ; border-top: 0.5pt solid #000000 ; border-right: 0.5pt solid #000000 ; border-bottom: 0.5pt solid #000000 ; text-align: left&quot;&gt;tmp.user_product_rebuy_prob_dzj&lt;/td&gt;&lt;/tr&gt;&lt;/tbody&gt;&lt;/table&gt;" style="text;whiteSpace=wrap;html=1;fontSize=14;" vertex="1" parent="1">
          <mxGeometry x="202.5" y="-680" width="310" height="40" as="geometry" />
        </mxCell>
        <mxCell id="2WE1GlY1AKFLDNiEvPUj-273" style="edgeStyle=orthogonalEdgeStyle;rounded=0;orthogonalLoop=1;jettySize=auto;html=1;fontSize=13;fontColor=#FFFFFF;strokeWidth=1;" edge="1" parent="1" source="2WE1GlY1AKFLDNiEvPUj-61">
          <mxGeometry relative="1" as="geometry">
            <mxPoint x="1190" y="-450" as="targetPoint" />
          </mxGeometry>
        </mxCell>
        <mxCell id="2WE1GlY1AKFLDNiEvPUj-61" value="" style="rounded=0;whiteSpace=wrap;html=1;fillColor=none;gradientColor=#ffffff;dashed=1;" vertex="1" parent="1">
          <mxGeometry x="910" y="-795" width="560" height="160" as="geometry" />
        </mxCell>
        <mxCell id="2WE1GlY1AKFLDNiEvPUj-62" value="6" style="ellipse;whiteSpace=wrap;html=1;aspect=fixed;fillColor=none;gradientColor=#ffffff;" vertex="1" parent="1">
          <mxGeometry x="1135" y="-770" width="30" height="30" as="geometry" />
        </mxCell>
        <mxCell id="2WE1GlY1AKFLDNiEvPUj-66" value="&lt;span style=&quot;font-family: &amp;quot;times new roman&amp;quot; ; font-size: 16px ; text-align: left ; background-color: rgb(255 , 255 , 255)&quot;&gt;ddmc_recommend.order_product&lt;/span&gt;&lt;span style=&quot;text-align: left&quot;&gt;&lt;br&gt;&lt;/span&gt;" style="rounded=0;whiteSpace=wrap;html=1;fontStyle=1" vertex="1" parent="1">
          <mxGeometry x="960" y="-690" width="235" height="25" as="geometry" />
        </mxCell>
        <mxCell id="2WE1GlY1AKFLDNiEvPUj-52" value="&lt;table style=&quot;border-collapse: collapse&quot;&gt;&lt;colgroup&gt;&lt;col width=&quot;285&quot; style=&quot;width: 285px&quot;&gt;&lt;/colgroup&gt;&lt;tbody&gt;&lt;tr style=&quot;height: 19px&quot;&gt;&lt;td style=&quot;font-size: 12pt ; font-family: &amp;quot;times new roman&amp;quot; ; border-left: 0.5pt solid #000000 ; border-top: 0.5pt solid #000000 ; border-right: 0.5pt solid #000000 ; border-bottom: 0.5pt solid #000000 ; text-align: left&quot;&gt;&lt;span style=&quot;color: rgba(0 , 0 , 0 , 0) ; font-family: monospace ; font-size: 0px&quot;&gt;%3CmxGraphModel%3E%3Croot%3E%3CmxCell%20id%3D%220%22%2F%3E%3CmxCell%20id%3D%221%22%20parent%3D%220%22%2F%3E%3CmxCell%20id%3D%222%22%20value%3D%22%26lt%3Bmeta%20charset%3D%26quot%3Butf-8%26quot%3B%26gt%3B%26lt%3Btable%20style%3D%26quot%3Bborder-collapse%3A%20collapse%26quot%3B%26gt%3B%26lt%3Bcolgroup%26gt%3B%26lt%3Bcol%20width%3D%26quot%3B285%26quot%3B%20style%3D%26quot%3Bwidth%3A%20285px%26quot%3B%26gt%3B%26lt%3B%2Fcolgroup%26gt%3B%26lt%3Btbody%26gt%3B%26lt%3Btr%20style%3D%26quot%3Bheight%3A%2019px%26quot%3B%26gt%3B%26lt%3Btd%20style%3D%26quot%3Bfont-size%3A%2012pt%20%3B%20font-family%3A%20%26amp%3Bquot%3Btimes%20new%20roman%26amp%3Bquot%3B%20%3B%20border-left%3A%200.5pt%20solid%20%23000000%20%3B%20border-top%3A%200.5pt%20solid%20%23000000%20%3B%20border-right%3A%200.5pt%20solid%20%23000000%20%3B%20border-bottom%3A%200.5pt%20solid%20%23000000%20%3B%20text-align%3A%20left%26quot%3B%26gt%3Btmp.user_product_rebuy_prob_dzj%26lt%3B%2Ftd%26gt%3B%26lt%3B%2Ftr%26gt%3B%26lt%3B%2Ftbody%26gt%3B%26lt%3B%2Ftable%26gt%3B%22%20style%3D%22text%3BwhiteSpace%3Dwrap%3Bhtml%3D1%3BfontSize%3D14%3B%22%20vertex%3D%221%22%20parent%3D%221%22%3E%3CmxGeometry%20x%3D%22710%22%20y%3D%22-560%22%20width%3D%22310%22%20height%3D%2240%22%20as%3D%22geometry%22%2F%3E%3C%2FmxCell%3E%3C%2Froot%3E%3C%2FmxGraphModel%3E&lt;/span&gt;tmp.prob_rebuy_dzj&lt;br&gt;&lt;/td&gt;&lt;/tr&gt;&lt;/tbody&gt;&lt;/table&gt;" style="text;whiteSpace=wrap;html=1;fontSize=14;fontStyle=1" vertex="1" parent="1">
          <mxGeometry x="250" y="-624" width="150" height="40" as="geometry" />
        </mxCell>
        <mxCell id="2WE1GlY1AKFLDNiEvPUj-70" value="4482，&lt;span style=&quot;font-family: &amp;#34;times new roman&amp;#34; ; font-size: 16px ; text-align: left ; background-color: rgb(255 , 255 , 255)&quot;&gt;每天&amp;nbsp;凌晨03:00&lt;/span&gt;" style="text;html=1;align=center;verticalAlign=middle;resizable=0;points=[];autosize=1;strokeColor=none;fontSize=15;" vertex="1" parent="1">
          <mxGeometry x="52.5" y="-704" width="170" height="20" as="geometry" />
        </mxCell>
        <mxCell id="2WE1GlY1AKFLDNiEvPUj-72" value="&lt;span style=&quot;font-family: &amp;quot;times new roman&amp;quot; ; font-size: 16px ; text-align: left ; background-color: rgb(255 , 255 , 255)&quot;&gt;ddmc_recommend.product_cvr&lt;/span&gt;&lt;span style=&quot;text-align: left&quot;&gt;&lt;br&gt;&lt;/span&gt;" style="rounded=0;whiteSpace=wrap;html=1;fontStyle=1" vertex="1" parent="1">
          <mxGeometry x="1230" y="-690" width="230" height="25" as="geometry" />
        </mxCell>
        <mxCell id="2WE1GlY1AKFLDNiEvPUj-105" value="2531" style="text;html=1;align=center;verticalAlign=middle;resizable=0;points=[];autosize=1;strokeColor=none;fontSize=15;" vertex="1" parent="1">
          <mxGeometry x="1205" y="-759" width="50" height="20" as="geometry" />
        </mxCell>
        <mxCell id="2WE1GlY1AKFLDNiEvPUj-108" value="7" style="ellipse;whiteSpace=wrap;html=1;aspect=fixed;fillColor=none;gradientColor=#ffffff;" vertex="1" parent="1">
          <mxGeometry x="295" y="-415" width="30" height="30" as="geometry" />
        </mxCell>
        <mxCell id="2WE1GlY1AKFLDNiEvPUj-113" value="&lt;span style=&quot;font-family: &amp;quot;times new roman&amp;quot;; font-size: 16px; text-align: left; background-color: rgb(255, 255, 255);&quot;&gt;tmp.order_info_30d_wyw&lt;/span&gt;&lt;span style=&quot;text-align: left&quot;&gt;&lt;br&gt;&lt;/span&gt;" style="rounded=0;whiteSpace=wrap;html=1;fontStyle=1" vertex="1" parent="1">
          <mxGeometry x="355" y="-375" width="200" height="20" as="geometry" />
        </mxCell>
        <mxCell id="2WE1GlY1AKFLDNiEvPUj-120" value="2532" style="text;html=1;align=center;verticalAlign=middle;resizable=0;points=[];autosize=1;strokeColor=none;fontSize=15;" vertex="1" parent="1">
          <mxGeometry x="335" y="-410" width="50" height="20" as="geometry" />
        </mxCell>
        <mxCell id="2WE1GlY1AKFLDNiEvPUj-122" value="&lt;span style=&quot;font-family: &amp;quot;times new roman&amp;quot;; font-size: 16px; text-align: left; background-color: rgb(255, 255, 255);&quot;&gt;tmp.order_info_60d_zwb&lt;/span&gt;&lt;span style=&quot;text-align: left&quot;&gt;&lt;br&gt;&lt;/span&gt;" style="rounded=0;whiteSpace=wrap;html=1;fontStyle=1" vertex="1" parent="1">
          <mxGeometry x="565" y="-375" width="180" height="20" as="geometry" />
        </mxCell>
        <mxCell id="2WE1GlY1AKFLDNiEvPUj-125" value="&lt;span style=&quot;font-family: &amp;quot;times new roman&amp;quot;; font-size: 16px; text-align: left; background-color: rgb(255, 255, 255);&quot;&gt;tmp.product_cvr_30d_wyw&lt;/span&gt;&lt;span style=&quot;text-align: left&quot;&gt;&lt;br&gt;&lt;/span&gt;" style="rounded=0;whiteSpace=wrap;html=1;fontStyle=1" vertex="1" parent="1">
          <mxGeometry x="755" y="-377.5" width="200" height="25" as="geometry" />
        </mxCell>
        <mxCell id="2WE1GlY1AKFLDNiEvPUj-129" value="&lt;span style=&quot;font-family: &amp;quot;times new roman&amp;quot;; font-size: 16px; text-align: left; background-color: rgb(255, 255, 255);&quot;&gt;tmp.product_cvr_60d_wyw&lt;/span&gt;&lt;span style=&quot;text-align: left&quot;&gt;&lt;br&gt;&lt;/span&gt;" style="rounded=0;whiteSpace=wrap;html=1;fontStyle=1" vertex="1" parent="1">
          <mxGeometry x="975" y="-380" width="200" height="25" as="geometry" />
        </mxCell>
        <mxCell id="2WE1GlY1AKFLDNiEvPUj-132" value="&lt;span style=&quot;font-family: &amp;quot;times new roman&amp;quot;; font-size: 16px; text-align: left; background-color: rgb(255, 255, 255);&quot;&gt;tmp.product_info_wyw&lt;/span&gt;&lt;span style=&quot;text-align: left&quot;&gt;&lt;br&gt;&lt;/span&gt;" style="rounded=0;whiteSpace=wrap;html=1;fontStyle=1" vertex="1" parent="1">
          <mxGeometry x="1185" y="-381.25" width="170" height="27.5" as="geometry" />
        </mxCell>
        <mxCell id="2WE1GlY1AKFLDNiEvPUj-133" value="&lt;span style=&quot;font-family: &amp;quot;times new roman&amp;quot;; font-size: 16px; text-align: left; background-color: rgb(255, 255, 255);&quot;&gt;tmp.category_info_wyw&lt;/span&gt;&lt;span style=&quot;text-align: left&quot;&gt;&lt;br&gt;&lt;/span&gt;" style="rounded=0;whiteSpace=wrap;html=1;fontStyle=1" vertex="1" parent="1">
          <mxGeometry x="1395" y="-381.25" width="200" height="25" as="geometry" />
        </mxCell>
        <mxCell id="2WE1GlY1AKFLDNiEvPUj-274" style="edgeStyle=orthogonalEdgeStyle;rounded=0;orthogonalLoop=1;jettySize=auto;html=1;fontSize=13;fontColor=#FFFFFF;strokeWidth=1;" edge="1" parent="1" source="2WE1GlY1AKFLDNiEvPUj-141">
          <mxGeometry relative="1" as="geometry">
            <mxPoint x="190" y="-240" as="targetPoint" />
          </mxGeometry>
        </mxCell>
        <mxCell id="2WE1GlY1AKFLDNiEvPUj-305" style="edgeStyle=orthogonalEdgeStyle;rounded=0;orthogonalLoop=1;jettySize=auto;html=1;exitX=1;exitY=1;exitDx=0;exitDy=0;entryX=0.944;entryY=-0.008;entryDx=0;entryDy=0;entryPerimeter=0;fontSize=13;fontColor=#FFFFFF;strokeWidth=1;" edge="1" parent="1" source="2WE1GlY1AKFLDNiEvPUj-141" target="2WE1GlY1AKFLDNiEvPUj-243">
          <mxGeometry relative="1" as="geometry" />
        </mxCell>
        <mxCell id="2WE1GlY1AKFLDNiEvPUj-306" style="edgeStyle=orthogonalEdgeStyle;rounded=0;orthogonalLoop=1;jettySize=auto;html=1;exitX=0.5;exitY=1;exitDx=0;exitDy=0;entryX=0.129;entryY=-0.006;entryDx=0;entryDy=0;entryPerimeter=0;fontSize=13;fontColor=#FFFFFF;strokeWidth=1;" edge="1" parent="1" source="2WE1GlY1AKFLDNiEvPUj-141" target="2WE1GlY1AKFLDNiEvPUj-199">
          <mxGeometry relative="1" as="geometry" />
        </mxCell>
        <mxCell id="2WE1GlY1AKFLDNiEvPUj-308" style="edgeStyle=orthogonalEdgeStyle;rounded=0;orthogonalLoop=1;jettySize=auto;html=1;exitX=0.25;exitY=1;exitDx=0;exitDy=0;entryX=0.356;entryY=-0.017;entryDx=0;entryDy=0;entryPerimeter=0;fontSize=13;fontColor=#FFFFFF;strokeWidth=1;" edge="1" parent="1" source="2WE1GlY1AKFLDNiEvPUj-141" target="2WE1GlY1AKFLDNiEvPUj-253">
          <mxGeometry relative="1" as="geometry" />
        </mxCell>
        <mxCell id="2WE1GlY1AKFLDNiEvPUj-141" value="" style="rounded=0;whiteSpace=wrap;html=1;fillColor=none;gradientColor=#ffffff;dashed=1;" vertex="1" parent="1">
          <mxGeometry x="222.5" y="-440" width="1387.5" height="150" as="geometry" />
        </mxCell>
        <mxCell id="2WE1GlY1AKFLDNiEvPUj-143" value="8" style="ellipse;whiteSpace=wrap;html=1;aspect=fixed;fillColor=none;gradientColor=#ffffff;" vertex="1" parent="1">
          <mxGeometry x="52.5" y="-90" width="30" height="30" as="geometry" />
        </mxCell>
        <mxCell id="2WE1GlY1AKFLDNiEvPUj-144" value="&lt;span style=&quot;font-family: &amp;#34;times new roman&amp;#34; ; font-size: 16px ; font-weight: 400 ; text-align: left ; background-color: rgb(255 , 255 , 255)&quot;&gt;tmp.user_click_product_wyw&lt;/span&gt;&lt;span style=&quot;text-align: left&quot;&gt;&lt;br&gt;&lt;/span&gt;" style="rounded=0;whiteSpace=wrap;html=1;fontStyle=1" vertex="1" parent="1">
          <mxGeometry x="122.5" y="-220" width="200" height="20" as="geometry" />
        </mxCell>
        <mxCell id="2WE1GlY1AKFLDNiEvPUj-145" value="2530" style="text;html=1;align=center;verticalAlign=middle;resizable=0;points=[];autosize=1;strokeColor=none;fontSize=15;" vertex="1" parent="1">
          <mxGeometry x="42.5" y="-50" width="50" height="20" as="geometry" />
        </mxCell>
        <mxCell id="2WE1GlY1AKFLDNiEvPUj-152" value="&lt;span style=&quot;font-family: &amp;#34;times new roman&amp;#34; ; font-size: 16px ; font-weight: 400 ; text-align: left ; background-color: rgb(255 , 255 , 255)&quot;&gt;tmp.user_order_product_wyw&lt;/span&gt;&lt;span style=&quot;text-align: left&quot;&gt;&lt;br&gt;&lt;/span&gt;" style="rounded=0;whiteSpace=wrap;html=1;fontStyle=1" vertex="1" parent="1">
          <mxGeometry x="122.5" y="-180" width="200" height="20" as="geometry" />
        </mxCell>
        <mxCell id="2WE1GlY1AKFLDNiEvPUj-154" value="&lt;span style=&quot;font-family: &amp;#34;times new roman&amp;#34; ; font-size: 16px ; font-weight: 400 ; text-align: left ; background-color: rgb(255 , 255 , 255)&quot;&gt;tmp.user_product_exposure_wyw&lt;/span&gt;&lt;span style=&quot;text-align: left&quot;&gt;&lt;br&gt;&lt;/span&gt;" style="rounded=0;whiteSpace=wrap;html=1;fontStyle=1" vertex="1" parent="1">
          <mxGeometry x="122.5" y="-145" width="245" height="20" as="geometry" />
        </mxCell>
        <mxCell id="2WE1GlY1AKFLDNiEvPUj-156" value="&lt;span style=&quot;font-family: &amp;#34;times new roman&amp;#34; ; font-size: 16px ; font-weight: 400 ; text-align: left ; background-color: rgb(255 , 255 , 255)&quot;&gt;tmp.click_and_order_wyw&lt;/span&gt;&lt;span style=&quot;text-align: left&quot;&gt;&lt;br&gt;&lt;/span&gt;" style="rounded=0;whiteSpace=wrap;html=1;fontStyle=1" vertex="1" parent="1">
          <mxGeometry x="121.25" y="-110" width="247.5" height="20" as="geometry" />
        </mxCell>
        <mxCell id="2WE1GlY1AKFLDNiEvPUj-158" value="&lt;span style=&quot;font-family: &amp;#34;times new roman&amp;#34; ; font-size: 16px ; font-weight: 400 ; text-align: left ; background-color: rgb(255 , 255 , 255)&quot;&gt;tmp.click_and_order_add_180d_wyw&lt;/span&gt;&lt;span style=&quot;text-align: left&quot;&gt;&lt;br&gt;&lt;/span&gt;" style="rounded=0;whiteSpace=wrap;html=1;fontStyle=1" vertex="1" parent="1">
          <mxGeometry x="121.25" y="-32.5" width="245" height="20" as="geometry" />
        </mxCell>
        <mxCell id="2WE1GlY1AKFLDNiEvPUj-159" value="&lt;span style=&quot;font-family: &amp;#34;times new roman&amp;#34; ; font-size: 16px ; font-weight: 400 ; text-align: left ; background-color: rgb(255 , 255 , 255)&quot;&gt;tmp.feature_user_product_wyw&lt;/span&gt;&lt;span style=&quot;text-align: left&quot;&gt;&lt;br&gt;&lt;/span&gt;" style="rounded=0;whiteSpace=wrap;html=1;fontStyle=1" vertex="1" parent="1">
          <mxGeometry x="121.25" y="10" width="245" height="20" as="geometry" />
        </mxCell>
        <mxCell id="2WE1GlY1AKFLDNiEvPUj-160" value="&lt;span style=&quot;color: rgb(43, 43, 43); background-color: rgb(255, 255, 255); font-size: 13px;&quot;&gt;ddmc_recommend.feature_user_product&lt;/span&gt;&lt;span style=&quot;text-align: left; font-size: 13px;&quot;&gt;&lt;br style=&quot;font-size: 13px;&quot;&gt;&lt;/span&gt;" style="rounded=0;whiteSpace=wrap;html=1;fontStyle=1;fontSize=13;" vertex="1" parent="1">
          <mxGeometry x="121.25" y="40" width="257.5" height="30" as="geometry" />
        </mxCell>
        <mxCell id="2WE1GlY1AKFLDNiEvPUj-164" value="&lt;span style=&quot;font-family: &amp;#34;times new roman&amp;#34; ; font-size: 16px ; font-weight: 400 ; text-align: left ; background-color: rgb(255 , 255 , 255)&quot;&gt;tmp.user_order_product_wyw_180day&lt;/span&gt;&lt;span style=&quot;text-align: left&quot;&gt;&lt;br&gt;&lt;/span&gt;" style="rounded=0;whiteSpace=wrap;html=1;fontStyle=1" vertex="1" parent="1">
          <mxGeometry x="122.5" y="-70" width="247.5" height="20" as="geometry" />
        </mxCell>
        <mxCell id="2WE1GlY1AKFLDNiEvPUj-304" style="edgeStyle=orthogonalEdgeStyle;rounded=0;orthogonalLoop=1;jettySize=auto;html=1;exitX=0.25;exitY=1;exitDx=0;exitDy=0;entryX=0.952;entryY=-0.009;entryDx=0;entryDy=0;entryPerimeter=0;fontSize=13;fontColor=#FFFFFF;strokeWidth=1;" edge="1" parent="1" source="2WE1GlY1AKFLDNiEvPUj-199" target="2WE1GlY1AKFLDNiEvPUj-294">
          <mxGeometry relative="1" as="geometry" />
        </mxCell>
        <mxCell id="2WE1GlY1AKFLDNiEvPUj-199" value="" style="rounded=0;whiteSpace=wrap;html=1;fillColor=none;gradientColor=#ffffff;dashed=1;" vertex="1" parent="1">
          <mxGeometry x="870" y="-230" width="360" height="320" as="geometry" />
        </mxCell>
        <mxCell id="2WE1GlY1AKFLDNiEvPUj-200" value="&lt;meta charset=&quot;utf-8&quot;&gt;&lt;table style=&quot;border-collapse: collapse&quot;&gt;&lt;colgroup&gt;&lt;col width=&quot;285&quot; style=&quot;width: 285px&quot;&gt;&lt;/colgroup&gt;&lt;tbody&gt;&lt;tr style=&quot;height: 19px&quot;&gt;&lt;td style=&quot;font-size: 12pt ; font-family: &amp;quot;times new roman&amp;quot; ; color: #000000 ; border-left: 0.5pt solid #000000 ; border-top: 0.5pt solid #000000 ; border-right: 0.5pt solid #000000 ; border-bottom: 0.5pt solid #000000 ; text-align: left&quot;&gt;&lt;font style=&quot;font-size: 12pt ; font-family: &amp;quot;times new roman&amp;quot; ; color: #000000&quot;&gt;tmp.exposure_cvr_info_wyw&lt;/font&gt;&lt;/td&gt;&lt;/tr&gt;&lt;/tbody&gt;&lt;/table&gt;" style="text;whiteSpace=wrap;html=1;fontSize=13;" vertex="1" parent="1">
          <mxGeometry x="495" y="-185" width="210" height="30" as="geometry" />
        </mxCell>
        <mxCell id="2WE1GlY1AKFLDNiEvPUj-201" value="&lt;meta charset=&quot;utf-8&quot;&gt;&lt;table style=&quot;border-collapse: collapse&quot;&gt;&lt;colgroup&gt;&lt;col width=&quot;285&quot; style=&quot;width: 285px&quot;&gt;&lt;/colgroup&gt;&lt;tbody&gt;&lt;tr style=&quot;height: 19px&quot;&gt;&lt;td style=&quot;font-size: 12pt ; font-family: &amp;quot;times new roman&amp;quot; ; color: #000000 ; border-left: 0.5pt solid #000000 ; border-top: 0.5pt solid #000000 ; border-right: 0.5pt solid #000000 ; border-bottom: 0.5pt solid #000000 ; text-align: left&quot;&gt;&lt;font style=&quot;font-size: 12pt ; font-family: &amp;quot;times new roman&amp;quot; ; color: #000000&quot;&gt;tmp.category_cycle_info_wyw&lt;/font&gt;&lt;/td&gt;&lt;/tr&gt;&lt;/tbody&gt;&lt;/table&gt;" style="text;whiteSpace=wrap;html=1;fontSize=13;" vertex="1" parent="1">
          <mxGeometry x="495" y="-120" width="210" height="40" as="geometry" />
        </mxCell>
        <mxCell id="2WE1GlY1AKFLDNiEvPUj-299" style="edgeStyle=orthogonalEdgeStyle;rounded=0;orthogonalLoop=1;jettySize=auto;html=1;exitX=0.5;exitY=1;exitDx=0;exitDy=0;entryX=0;entryY=0;entryDx=0;entryDy=0;fontSize=13;fontColor=#FFFFFF;strokeWidth=1;" edge="1" parent="1" source="2WE1GlY1AKFLDNiEvPUj-210" target="2WE1GlY1AKFLDNiEvPUj-294">
          <mxGeometry relative="1" as="geometry" />
        </mxCell>
        <mxCell id="2WE1GlY1AKFLDNiEvPUj-210" value="" style="rounded=0;whiteSpace=wrap;html=1;fillColor=none;gradientColor=#ffffff;dashed=1;" vertex="1" parent="1">
          <mxGeometry x="20" y="-230" width="390" height="320" as="geometry" />
        </mxCell>
        <mxCell id="2WE1GlY1AKFLDNiEvPUj-215" value="2527" style="text;html=1;align=center;verticalAlign=middle;resizable=0;points=[];autosize=1;strokeColor=none;fontSize=15;" vertex="1" parent="1">
          <mxGeometry x="590" y="-210" width="50" height="20" as="geometry" />
        </mxCell>
        <mxCell id="2WE1GlY1AKFLDNiEvPUj-216" value="9" style="ellipse;whiteSpace=wrap;html=1;aspect=fixed;fillColor=none;gradientColor=#ffffff;" vertex="1" parent="1">
          <mxGeometry x="535" y="-215" width="30" height="30" as="geometry" />
        </mxCell>
        <mxCell id="2WE1GlY1AKFLDNiEvPUj-223" value="2528" style="text;html=1;align=center;verticalAlign=middle;resizable=0;points=[];autosize=1;strokeColor=none;fontSize=15;" vertex="1" parent="1">
          <mxGeometry x="895" y="-40" width="50" height="20" as="geometry" />
        </mxCell>
        <mxCell id="2WE1GlY1AKFLDNiEvPUj-224" value="10" style="ellipse;whiteSpace=wrap;html=1;aspect=fixed;fillColor=none;gradientColor=#ffffff;" vertex="1" parent="1">
          <mxGeometry x="900" y="-80" width="30" height="30" as="geometry" />
        </mxCell>
        <mxCell id="2WE1GlY1AKFLDNiEvPUj-226" value="&lt;meta charset=&quot;utf-8&quot;&gt;&lt;table style=&quot;border-collapse: collapse&quot;&gt;&lt;colgroup&gt;&lt;col width=&quot;285&quot; style=&quot;width: 285px&quot;&gt;&lt;/colgroup&gt;&lt;tbody&gt;&lt;tr style=&quot;height: 19px&quot;&gt;&lt;td style=&quot;font-size: 12pt ; font-family: &amp;quot;times new roman&amp;quot; ; color: #000000 ; border-left: 0.5pt solid #000000 ; border-top: 0.5pt solid #000000 ; border-right: 0.5pt solid #000000 ; border-bottom: 0.5pt solid #000000 ; text-align: left&quot;&gt;&lt;font style=&quot;font-size: 12pt ; font-family: &amp;quot;times new roman&amp;quot; ; color: #000000&quot;&gt;tmp.feature_product_exposure_wyw&lt;/font&gt;&lt;/td&gt;&lt;/tr&gt;&lt;/tbody&gt;&lt;/table&gt;" style="text;whiteSpace=wrap;html=1;fontSize=13;" vertex="1" parent="1">
          <mxGeometry x="935" y="-210" width="250" height="30" as="geometry" />
        </mxCell>
        <mxCell id="2WE1GlY1AKFLDNiEvPUj-227" value="&lt;meta charset=&quot;utf-8&quot;&gt;&lt;table style=&quot;border-collapse: collapse&quot;&gt;&lt;colgroup&gt;&lt;col width=&quot;285&quot; style=&quot;width: 285px&quot;&gt;&lt;/colgroup&gt;&lt;tbody&gt;&lt;tr style=&quot;height: 24px&quot;&gt;&lt;td style=&quot;font-size: 12pt ; font-family: &amp;quot;times new roman&amp;quot; ; border-left: 0.5pt solid #000000 ; border-top: 0.5pt solid #000000 ; border-right: 0.5pt solid #000000 ; border-bottom: 0.5pt solid #000000 ; text-align: left&quot;&gt;tmp.feature_product_day_expos_wyw&lt;/td&gt;&lt;/tr&gt;&lt;/tbody&gt;&lt;/table&gt;" style="text;whiteSpace=wrap;html=1;fontSize=13;" vertex="1" parent="1">
          <mxGeometry x="940" y="-175" width="270" height="30" as="geometry" />
        </mxCell>
        <mxCell id="2WE1GlY1AKFLDNiEvPUj-228" value="&lt;meta charset=&quot;utf-8&quot;&gt;&lt;table style=&quot;border-collapse: collapse&quot;&gt;&lt;colgroup&gt;&lt;col width=&quot;285&quot; style=&quot;width: 285px&quot;&gt;&lt;/colgroup&gt;&lt;tbody&gt;&lt;tr style=&quot;height: 24px&quot;&gt;&lt;td style=&quot;font-size: 12pt ; font-family: &amp;quot;times new roman&amp;quot; ; border-left: 0.5pt solid #000000 ; border-top: 0.5pt solid #000000 ; border-right: 0.5pt solid #000000 ; border-bottom: 0.5pt solid #000000 ; text-align: left&quot;&gt;tmp.feature_product_cycle_wyw&lt;/td&gt;&lt;/tr&gt;&lt;/tbody&gt;&lt;/table&gt;" style="text;whiteSpace=wrap;html=1;fontSize=13;" vertex="1" parent="1">
          <mxGeometry x="942" y="-145" width="232.5" height="30" as="geometry" />
        </mxCell>
        <mxCell id="2WE1GlY1AKFLDNiEvPUj-229" value="&lt;meta charset=&quot;utf-8&quot;&gt;&lt;table style=&quot;border-collapse: collapse&quot;&gt;&lt;colgroup&gt;&lt;col width=&quot;285&quot; style=&quot;width: 285px&quot;&gt;&lt;/colgroup&gt;&lt;tbody&gt;&lt;tr style=&quot;height: 24px&quot;&gt;&lt;td style=&quot;font-size: 12pt ; font-family: &amp;quot;times new roman&amp;quot; ; border-left: 0.5pt solid #000000 ; border-top: 0.5pt solid #000000 ; border-right: 0.5pt solid #000000 ; border-bottom: 0.5pt solid #000000 ; text-align: left&quot;&gt;tmp.product_price_level_wyw&lt;/td&gt;&lt;/tr&gt;&lt;/tbody&gt;&lt;/table&gt;" style="text;whiteSpace=wrap;html=1;fontSize=13;" vertex="1" parent="1">
          <mxGeometry x="940" y="-110" width="225" height="37.5" as="geometry" />
        </mxCell>
        <mxCell id="2WE1GlY1AKFLDNiEvPUj-230" value="&lt;meta charset=&quot;utf-8&quot;&gt;&lt;table style=&quot;border-collapse: collapse&quot;&gt;&lt;colgroup&gt;&lt;col width=&quot;285&quot; style=&quot;width: 285px&quot;&gt;&lt;/colgroup&gt;&lt;tbody&gt;&lt;tr style=&quot;height: 24px&quot;&gt;&lt;td style=&quot;font-size: 12pt ; font-family: &amp;quot;times new roman&amp;quot; ; border-left: 0.5pt solid #000000 ; border-top: 0.5pt solid #000000 ; border-right: 0.5pt solid #000000 ; border-bottom: 0.5pt solid #000000 ; text-align: left&quot;&gt;tmp.product_algo_category_wyw&lt;/td&gt;&lt;/tr&gt;&lt;/tbody&gt;&lt;/table&gt;" style="text;whiteSpace=wrap;html=1;fontSize=13;" vertex="1" parent="1">
          <mxGeometry x="940.75" y="-72.5" width="235" height="30" as="geometry" />
        </mxCell>
        <mxCell id="2WE1GlY1AKFLDNiEvPUj-231" value="&lt;meta charset=&quot;utf-8&quot;&gt;&lt;table style=&quot;border-collapse: collapse&quot;&gt;&lt;colgroup&gt;&lt;col width=&quot;285&quot; style=&quot;width: 285px&quot;&gt;&lt;/colgroup&gt;&lt;tbody&gt;&lt;tr style=&quot;height: 24px&quot;&gt;&lt;td style=&quot;font-size: 12pt ; font-family: &amp;quot;times new roman&amp;quot; ; border-left: 0.5pt solid #000000 ; border-top: 0.5pt solid #000000 ; border-right: 0.5pt solid #000000 ; border-bottom: 0.5pt solid #000000 ; text-align: left&quot;&gt;tmp.product_score_zwb&lt;/td&gt;&lt;/tr&gt;&lt;/tbody&gt;&lt;/table&gt;" style="text;whiteSpace=wrap;html=1;fontSize=13;" vertex="1" parent="1">
          <mxGeometry x="945" y="-40" width="180" height="30" as="geometry" />
        </mxCell>
        <mxCell id="2WE1GlY1AKFLDNiEvPUj-237" value="&lt;table style=&quot;border-collapse: collapse&quot;&gt;&lt;colgroup&gt;&lt;col width=&quot;285&quot; style=&quot;width: 285px&quot;&gt;&lt;/colgroup&gt;&lt;tbody&gt;&lt;tr style=&quot;height: 24px&quot;&gt;&lt;td style=&quot;font-size: 12pt ; font-family: &amp;#34;times new roman&amp;#34; ; border-left: 0.5pt solid #000000 ; border-top: 0.5pt solid #000000 ; border-right: 0.5pt solid #000000 ; border-bottom: 0.5pt solid #000000 ; text-align: left&quot;&gt;&lt;span style=&quot;font-weight: 700 ; background-color: rgb(255 , 255 , 255)&quot;&gt;ddmc_recommend.feature_product&lt;/span&gt;&lt;br&gt;&lt;/td&gt;&lt;/tr&gt;&lt;/tbody&gt;&lt;/table&gt;" style="text;whiteSpace=wrap;html=1;fontSize=13;" vertex="1" parent="1">
          <mxGeometry x="945" width="180" height="30" as="geometry" />
        </mxCell>
        <mxCell id="2WE1GlY1AKFLDNiEvPUj-303" style="edgeStyle=orthogonalEdgeStyle;rounded=0;orthogonalLoop=1;jettySize=auto;html=1;exitX=0.5;exitY=1;exitDx=0;exitDy=0;entryX=1;entryY=0;entryDx=0;entryDy=0;fontSize=13;fontColor=#FFFFFF;strokeWidth=1;" edge="1" parent="1" source="2WE1GlY1AKFLDNiEvPUj-243" target="2WE1GlY1AKFLDNiEvPUj-294">
          <mxGeometry relative="1" as="geometry" />
        </mxCell>
        <mxCell id="2WE1GlY1AKFLDNiEvPUj-243" value="" style="rounded=0;whiteSpace=wrap;html=1;fillColor=none;gradientColor=#ffffff;dashed=1;" vertex="1" parent="1">
          <mxGeometry x="1270" y="-231.25" width="360" height="321.25" as="geometry" />
        </mxCell>
        <mxCell id="2WE1GlY1AKFLDNiEvPUj-244" value="2529" style="text;html=1;align=center;verticalAlign=middle;resizable=0;points=[];autosize=1;strokeColor=none;fontSize=15;" vertex="1" parent="1">
          <mxGeometry x="1270" y="-67.5" width="50" height="20" as="geometry" />
        </mxCell>
        <mxCell id="2WE1GlY1AKFLDNiEvPUj-245" value="11" style="ellipse;whiteSpace=wrap;html=1;aspect=fixed;fillColor=none;gradientColor=#ffffff;" vertex="1" parent="1">
          <mxGeometry x="1280" y="-115" width="30" height="30" as="geometry" />
        </mxCell>
        <mxCell id="2WE1GlY1AKFLDNiEvPUj-246" value="&lt;table style=&quot;border-collapse: collapse&quot;&gt;&lt;colgroup&gt;&lt;col width=&quot;285&quot; style=&quot;width: 285px&quot;&gt;&lt;/colgroup&gt;&lt;tbody&gt;&lt;tr style=&quot;height: 24px&quot;&gt;&lt;td style=&quot;empty-cells: show ; line-height: normal ; vertical-align: middle ; outline-width: 0px ; overflow-wrap: break-word ; word-break: normal ; font-size: 12pt ; font-family: &amp;#34;times new roman&amp;#34; ; border-width: 0.5pt ; border-style: solid ; border-color: rgb(0 , 0 , 0)&quot;&gt;&lt;font style=&quot;font-size: 12pt&quot;&gt;tmp.user_category_action_wyw&lt;/font&gt;&lt;/td&gt;&lt;/tr&gt;&lt;/tbody&gt;&lt;/table&gt;" style="text;whiteSpace=wrap;html=1;fontSize=13;" vertex="1" parent="1">
          <mxGeometry x="1330" y="-211.25" width="250" height="30" as="geometry" />
        </mxCell>
        <mxCell id="2WE1GlY1AKFLDNiEvPUj-301" style="edgeStyle=orthogonalEdgeStyle;rounded=0;orthogonalLoop=1;jettySize=auto;html=1;exitX=0.5;exitY=1;exitDx=0;exitDy=0;fontSize=13;fontColor=#FFFFFF;strokeWidth=1;" edge="1" parent="1" source="2WE1GlY1AKFLDNiEvPUj-253">
          <mxGeometry relative="1" as="geometry">
            <mxPoint x="619.6470588235295" y="200" as="targetPoint" />
          </mxGeometry>
        </mxCell>
        <mxCell id="2WE1GlY1AKFLDNiEvPUj-253" value="" style="rounded=0;whiteSpace=wrap;html=1;fillColor=none;gradientColor=#ffffff;dashed=1;" vertex="1" parent="1">
          <mxGeometry x="440" y="-230" width="360" height="320" as="geometry" />
        </mxCell>
        <mxCell id="2WE1GlY1AKFLDNiEvPUj-255" value="&lt;table style=&quot;border-collapse: collapse&quot;&gt;&lt;colgroup&gt;&lt;col width=&quot;285&quot; style=&quot;width: 285px&quot;&gt;&lt;/colgroup&gt;&lt;tbody&gt;&lt;tr style=&quot;height: 24px&quot;&gt;&lt;td style=&quot;font-size: 12pt ; font-family: &amp;#34;times new roman&amp;#34; ; border-left: 0.5pt solid #000000 ; border-top: 0.5pt solid #000000 ; border-right: 0.5pt solid #000000 ; border-bottom: 0.5pt solid #000000 ; text-align: left&quot;&gt;&lt;span style=&quot;font-weight: 700 ; background-color: rgb(255 , 255 , 255)&quot;&gt;ddmc_recommend.feature_category&lt;/span&gt;&lt;br&gt;&lt;/td&gt;&lt;/tr&gt;&lt;/tbody&gt;&lt;/table&gt;" style="text;whiteSpace=wrap;html=1;fontSize=13;" vertex="1" parent="1">
          <mxGeometry x="490" y="-55" width="180" height="30" as="geometry" />
        </mxCell>
        <mxCell id="2WE1GlY1AKFLDNiEvPUj-263" value="&lt;table style=&quot;border-collapse: collapse&quot;&gt;&lt;colgroup&gt;&lt;col width=&quot;285&quot; style=&quot;width: 285px&quot;&gt;&lt;/colgroup&gt;&lt;tbody&gt;&lt;tr style=&quot;height: 24px&quot;&gt;&lt;td style=&quot;empty-cells: show ; line-height: normal ; vertical-align: middle ; outline-width: 0px ; overflow-wrap: break-word ; word-break: normal ; font-size: 12pt ; font-family: &amp;#34;times new roman&amp;#34; ; border-width: 0.5pt ; border-style: solid ; border-color: rgb(0 , 0 , 0)&quot;&gt;&lt;table style=&quot;border-collapse: collapse&quot;&gt;&lt;colgroup&gt;&lt;col width=&quot;307&quot; style=&quot;width: 307px&quot;&gt;&lt;/colgroup&gt;&lt;tbody&gt;&lt;tr style=&quot;height: 24px&quot;&gt;&lt;td style=&quot;empty-cells: show ; line-height: normal ; vertical-align: middle ; outline-width: 0px ; overflow-wrap: break-word ; word-break: normal ; font-size: 10pt&quot;&gt;&lt;font style=&quot;font-size: 10pt&quot;&gt;tmp.algo_last_category_wyw&lt;/font&gt;&lt;/td&gt;&lt;/tr&gt;&lt;/tbody&gt;&lt;/table&gt;&lt;/td&gt;&lt;/tr&gt;&lt;/tbody&gt;&lt;/table&gt;" style="text;whiteSpace=wrap;html=1;fontSize=13;" vertex="1" parent="1">
          <mxGeometry x="1330" y="-160" width="250" height="30" as="geometry" />
        </mxCell>
        <mxCell id="2WE1GlY1AKFLDNiEvPUj-264" value="&lt;table style=&quot;border-collapse: collapse&quot;&gt;&lt;colgroup&gt;&lt;col width=&quot;285&quot; style=&quot;width: 285px&quot;&gt;&lt;/colgroup&gt;&lt;tbody&gt;&lt;tr style=&quot;height: 24px&quot;&gt;&lt;td style=&quot;empty-cells: show ; line-height: normal ; vertical-align: middle ; outline-width: 0px ; overflow-wrap: break-word ; word-break: normal ; font-size: 12pt ; font-family: &amp;quot;times new roman&amp;quot; ; border-width: 0.5pt ; border-style: solid ; border-color: rgb(0 , 0 , 0)&quot;&gt;&lt;table style=&quot;border-collapse: collapse&quot;&gt;&lt;colgroup&gt;&lt;col width=&quot;307&quot; style=&quot;width: 307px&quot;&gt;&lt;/colgroup&gt;&lt;tbody&gt;&lt;tr style=&quot;height: 24px&quot;&gt;&lt;td style=&quot;empty-cells: show ; line-height: normal ; vertical-align: middle ; outline-width: 0px ; overflow-wrap: break-word ; word-break: normal ; font-size: 10pt ; font-family: &amp;quot;times new roman&amp;quot;&quot;&gt;&lt;font style=&quot;font-size: 10pt&quot;&gt;ddmc_recommend.feature_user_category&lt;/font&gt;&lt;/td&gt;&lt;/tr&gt;&lt;/tbody&gt;&lt;/table&gt;&lt;/td&gt;&lt;/tr&gt;&lt;/tbody&gt;&lt;/table&gt;" style="text;whiteSpace=wrap;html=1;fontSize=13;fontStyle=1" vertex="1" parent="1">
          <mxGeometry x="1330" y="-50" width="250" height="30" as="geometry" />
        </mxCell>
        <mxCell id="2WE1GlY1AKFLDNiEvPUj-267" value="&lt;table style=&quot;border-collapse: collapse&quot;&gt;&lt;colgroup&gt;&lt;col width=&quot;285&quot; style=&quot;width: 285px&quot;&gt;&lt;/colgroup&gt;&lt;tbody&gt;&lt;tr style=&quot;height: 24px&quot;&gt;&lt;td style=&quot;empty-cells: show ; line-height: normal ; vertical-align: middle ; outline-width: 0px ; overflow-wrap: break-word ; word-break: normal ; font-size: 12pt ; font-family: &amp;#34;times new roman&amp;#34; ; border-width: 0.5pt ; border-style: solid ; border-color: rgb(0 , 0 , 0)&quot;&gt;&lt;table style=&quot;border-collapse: collapse&quot;&gt;&lt;colgroup&gt;&lt;col width=&quot;307&quot; style=&quot;width: 307px&quot;&gt;&lt;/colgroup&gt;&lt;tbody&gt;&lt;tr style=&quot;height: 24px&quot;&gt;&lt;td style=&quot;empty-cells: show ; line-height: normal ; vertical-align: middle ; outline-width: 0px ; overflow-wrap: break-word ; word-break: normal ; font-size: 10pt ; font-family: &amp;#34;times new roman&amp;#34;&quot;&gt;&lt;font style=&quot;font-size: 10pt&quot;&gt;tmp.feature_user_category_raw_wyw&lt;/font&gt;&lt;/td&gt;&lt;/tr&gt;&lt;/tbody&gt;&lt;/table&gt;&lt;/td&gt;&lt;/tr&gt;&lt;/tbody&gt;&lt;/table&gt;" style="text;whiteSpace=wrap;html=1;fontSize=13;" vertex="1" parent="1">
          <mxGeometry x="1330" y="-110" width="250" height="30" as="geometry" />
        </mxCell>
        <mxCell id="2WE1GlY1AKFLDNiEvPUj-276" style="edgeStyle=orthogonalEdgeStyle;rounded=0;orthogonalLoop=1;jettySize=auto;html=1;exitX=0;exitY=1;exitDx=0;exitDy=0;entryX=0.053;entryY=-0.012;entryDx=0;entryDy=0;entryPerimeter=0;fontSize=13;fontColor=#FFFFFF;strokeWidth=1;" edge="1" parent="1" source="2WE1GlY1AKFLDNiEvPUj-269" target="2WE1GlY1AKFLDNiEvPUj-210">
          <mxGeometry relative="1" as="geometry" />
        </mxCell>
        <mxCell id="2WE1GlY1AKFLDNiEvPUj-269" value="" style="rounded=0;whiteSpace=wrap;html=1;fillColor=none;gradientColor=#ffffff;dashed=1;" vertex="1" parent="1">
          <mxGeometry x="40" y="-834" width="560" height="280" as="geometry" />
        </mxCell>
        <mxCell id="2WE1GlY1AKFLDNiEvPUj-290" value="12" style="ellipse;whiteSpace=wrap;html=1;aspect=fixed;fillColor=none;gradientColor=#ffffff;" vertex="1" parent="1">
          <mxGeometry x="580" y="310" width="30" height="30" as="geometry" />
        </mxCell>
        <mxCell id="2WE1GlY1AKFLDNiEvPUj-293" value="3655" style="text;html=1;align=center;verticalAlign=middle;resizable=0;points=[];autosize=1;strokeColor=none;fontSize=15;" vertex="1" parent="1">
          <mxGeometry x="570" y="355" width="50" height="20" as="geometry" />
        </mxCell>
        <mxCell id="2WE1GlY1AKFLDNiEvPUj-294" value="" style="rounded=0;whiteSpace=wrap;html=1;fillColor=none;gradientColor=#ffffff;dashed=1;" vertex="1" parent="1">
          <mxGeometry x="427.5" y="210" width="560" height="280" as="geometry" />
        </mxCell>
        <mxCell id="2WE1GlY1AKFLDNiEvPUj-295" value="&lt;table style=&quot;border-collapse: collapse&quot;&gt;&lt;colgroup&gt;&lt;col width=&quot;141&quot; style=&quot;width: 141px&quot;&gt;&lt;/colgroup&gt;&lt;tbody&gt;&lt;tr style=&quot;height: 82px&quot;&gt;&lt;td style=&quot;font-size: 12pt ; font-family: &amp;#34;times new roman&amp;#34; ; color: rgb(0 , 0 , 0) ; border-width: 0.5pt ; border-style: solid ; border-color: rgb(0 , 0 , 0) ; text-align: left&quot;&gt;&lt;font style=&quot;font-size: 12pt ; font-family: &amp;#34;times new roman&amp;#34; ; color: #000000&quot;&gt;检查和加载数据&lt;br&gt;&lt;/font&gt;&lt;/td&gt;&lt;/tr&gt;&lt;/tbody&gt;&lt;/table&gt;" style="text;whiteSpace=wrap;html=1;fontSize=13;fontColor=#FFFFFF;" vertex="1" parent="1">
          <mxGeometry x="670" y="290" width="170" height="70" as="geometry" />
        </mxCell>
      </root>
    </mxGraphModel>
  </diagram>
</mxfile>
